<mxfile host="app.diagrams.net" modified="2022-11-01T02:07:56.016Z" agent="5.0 (Windows NT 10.0; Win64; x64) AppleWebKit/537.36 (KHTML, like Gecko) Chrome/107.0.0.0 Safari/537.36" etag="0rohQtcFVIzU5CxZxm1C" version="20.5.1" type="github">
  <diagram id="9X8F7qHRd8qOa90Mdjij" name="Page-1">
    <mxGraphModel dx="1422" dy="786" grid="1" gridSize="10" guides="1" tooltips="1" connect="1" arrows="1" fold="1" page="1" pageScale="1" pageWidth="850" pageHeight="1100" math="0" shadow="0">
      <root>
        <mxCell id="0" />
        <mxCell id="1" parent="0" />
        <mxCell id="8eT9hI0N79ts0sxerDsq-1" value="Vehcile Svc&lt;br&gt;TruckHistoryAdded" style="shape=hexagon;perimeter=hexagonPerimeter2;html=1;fixedSize=1;labelBorderColor=none;align=center;verticalAlign=top;labelPosition=center;verticalLabelPosition=middle;" vertex="1" parent="1">
          <mxGeometry x="200" y="520" width="520" height="300" as="geometry" />
        </mxCell>
        <mxCell id="8eT9hI0N79ts0sxerDsq-4" value="" style="edgeStyle=orthogonalEdgeStyle;rounded=0;orthogonalLoop=1;jettySize=auto;html=1;" edge="1" parent="1" source="8eT9hI0N79ts0sxerDsq-2" target="8eT9hI0N79ts0sxerDsq-3">
          <mxGeometry relative="1" as="geometry" />
        </mxCell>
        <mxCell id="8eT9hI0N79ts0sxerDsq-2" value="Add Truck History Pgsql" style="whiteSpace=wrap;html=1;aspect=fixed;" vertex="1" parent="1">
          <mxGeometry x="270" y="560" width="60" height="60" as="geometry" />
        </mxCell>
        <mxCell id="8eT9hI0N79ts0sxerDsq-6" value="" style="edgeStyle=orthogonalEdgeStyle;rounded=0;orthogonalLoop=1;jettySize=auto;html=1;" edge="1" parent="1" source="8eT9hI0N79ts0sxerDsq-3" target="8eT9hI0N79ts0sxerDsq-5">
          <mxGeometry relative="1" as="geometry" />
        </mxCell>
        <mxCell id="8eT9hI0N79ts0sxerDsq-3" value="Truck Updated Pgsql" style="whiteSpace=wrap;html=1;aspect=fixed;" vertex="1" parent="1">
          <mxGeometry x="430" y="560" width="60" height="60" as="geometry" />
        </mxCell>
        <mxCell id="8eT9hI0N79ts0sxerDsq-5" value="Publish Topic TRUCKS_UPDATED" style="whiteSpace=wrap;html=1;aspect=fixed;" vertex="1" parent="1">
          <mxGeometry x="400" y="660" width="120" height="120" as="geometry" />
        </mxCell>
      </root>
    </mxGraphModel>
  </diagram>
</mxfile>
